<?xml version="1.0" encoding="iso-8859-1"?>
<!-- Generator: Adobe Illustrator 19.0.0, SVG Export Plug-In . SVG Version: 6.00 Build 0)  -->
<svg xmlns="http://www.w3.org/2000/svg" xmlns:xlink="http://www.w3.org/1999/xlink" version="1.1" id="Layer_1" x="0px" y="0px" viewBox="0 0 512 512" style="enable-background:new 0 0 512 512;" xml:space="preserve" width="512px" height="512px">
<g>
	<g>
		<path d="M256,0C114.848,0,0,114.848,0,256s114.848,256,256,256s256-114.848,256-256S397.152,0,256,0z M256,480    C132.48,480,32,379.52,32,256S132.48,32,256,32s224,100.48,224,224S379.52,480,256,480z" fill="#FFFFFF"/>
	</g>
</g>
<g>
	<g>
		<path d="M400,208H256v-47.968c0-6.064-3.424-11.6-8.848-14.32c-5.424-2.72-11.904-2.128-16.752,1.52l-128,96    c-4.032,3.008-6.4,7.76-6.4,12.8c0,5.04,2.368,9.776,6.4,12.8l128,96c2.832,2.112,6.208,3.2,9.6,3.2    c2.432,0,4.896-0.56,7.152-1.68c5.424-2.72,8.848-8.256,8.848-14.32V304h144c8.832,0,16-7.168,16-16v-64    C416,215.168,408.832,208,400,208z M384,272H240c-8.832,0-16,7.168-16,16v32.032l-85.328-64l85.328-64V224c0,8.832,7.168,16,16,16    h144V272z" fill="#FFFFFF"/>
	</g>
</g>
<g>
</g>
<g>
</g>
<g>
</g>
<g>
</g>
<g>
</g>
<g>
</g>
<g>
</g>
<g>
</g>
<g>
</g>
<g>
</g>
<g>
</g>
<g>
</g>
<g>
</g>
<g>
</g>
<g>
</g>
</svg>
