<?xml version="1.0" encoding="iso-8859-1"?>
<!-- Generator: Adobe Illustrator 19.0.0, SVG Export Plug-In . SVG Version: 6.00 Build 0)  -->
<svg xmlns="http://www.w3.org/2000/svg" xmlns:xlink="http://www.w3.org/1999/xlink" version="1.1" id="Layer_1" x="0px" y="0px" viewBox="0 0 512 512" style="enable-background:new 0 0 512 512;" xml:space="preserve" width="512px" height="512px">
<g>
	<g>
		<path d="M256,0C114.848,0,0,114.848,0,256s114.848,256,256,256s256-114.848,256-256S397.152,0,256,0z M256,480    C132.48,480,32,379.52,32,256S132.48,32,256,32s224,100.48,224,224S379.52,480,256,480z" fill="#FFFFFF"/>
	</g>
</g>
<g>
	<g>
		<path d="M409.6,243.2l-128-96c-4.848-3.632-11.344-4.24-16.752-1.52C259.424,148.4,256,153.936,256,160v48H112    c-8.832,0-16,7.168-16,16v64c0,8.832,7.168,16,16,16h144v48c0,6.064,3.424,11.6,8.848,14.32c2.256,1.12,4.72,1.68,7.152,1.68    c3.392,0,6.768-1.088,9.6-3.2l128-96c4.032-3.008,6.4-7.76,6.4-12.8C416,250.96,413.632,246.224,409.6,243.2z M288,320v-32    c0-8.832-7.168-16-16-16H128v-32h144c8.832,0,16-7.168,16-16v-32l85.328,64L288,320z" fill="#FFFFFF"/>
	</g>
</g>
<g>
</g>
<g>
</g>
<g>
</g>
<g>
</g>
<g>
</g>
<g>
</g>
<g>
</g>
<g>
</g>
<g>
</g>
<g>
</g>
<g>
</g>
<g>
</g>
<g>
</g>
<g>
</g>
<g>
</g>
</svg>
